<svg xmlns="http://www.w3.org/2000/svg" width="192" height="24" viewBox="0 0 192 24">
  <defs>
    <style>
      .main{fill:#1f2937}
      .sub{fill:#4b5563}
      .soft{fill:#64748b}
    </style>
  </defs>
  <g transform="translate(0 0)">
    <rect class="main" x="5" y="5" width="2" height="14"/>
    <rect class="main" x="9" y="7" width="11" height="3"/>
    <rect class="sub" x="9" y="12" width="7" height="2"/>
    <rect class="soft" x="9" y="16" width="9" height="2"/>
  </g>
  <g transform="translate(24 0)">
    <rect class="main" x="11" y="5" width="2" height="14"/>
    <rect class="main" x="7" y="7" width="10" height="3"/>
    <rect class="sub" x="8" y="12" width="8" height="2"/>
    <rect class="soft" x="6" y="16" width="12" height="2"/>
  </g>
  <g transform="translate(48 0)">
    <rect class="main" x="17" y="5" width="2" height="14"/>
    <rect class="main" x="4" y="7" width="11" height="3"/>
    <rect class="sub" x="8" y="12" width="7" height="2"/>
    <rect class="soft" x="6" y="16" width="9" height="2"/>
  </g>
  <g transform="translate(72 0)">
    <rect class="main" x="5" y="7" width="14" height="2"/>
    <rect class="main" x="7" y="10" width="2" height="9"/>
    <rect class="sub" x="12" y="10" width="2" height="6"/>
    <rect class="soft" x="17" y="10" width="2" height="8"/>
  </g>
  <g transform="translate(96 0)">
    <rect class="main" x="5" y="11" width="14" height="2"/>
    <rect class="main" x="7" y="6" width="2" height="12"/>
    <rect class="sub" x="12" y="8" width="2" height="8"/>
    <rect class="soft" x="17" y="7" width="2" height="10"/>
  </g>
  <g transform="translate(120 0)">
    <rect class="main" x="5" y="16" width="14" height="2"/>
    <rect class="main" x="7" y="5" width="2" height="10"/>
    <rect class="sub" x="12" y="10" width="2" height="5"/>
    <rect class="soft" x="17" y="7" width="2" height="8"/>
  </g>
  <g transform="translate(144 0)">
    <rect class="main" x="5" y="5" width="2" height="14"/>
    <rect class="main" x="17" y="5" width="2" height="14"/>
    <rect class="sub" x="9" y="7" width="2" height="10"/>
    <rect class="soft" x="12" y="7" width="2" height="10"/>
    <rect class="sub" x="15" y="7" width="2" height="10"/>
  </g>
  <g transform="translate(168 0)">
    <rect class="main" x="5" y="5" width="14" height="2"/>
    <rect class="main" x="5" y="17" width="14" height="2"/>
    <rect class="sub" x="8" y="9" width="9" height="2"/>
    <rect class="soft" x="6" y="12" width="12" height="2"/>
    <rect class="sub" x="8" y="15" width="9" height="2"/>
  </g>
</svg>
